<svg xmlns="http://www.w3.org/2000/svg" version="1.1" xmlns:xlink="http://www.w3.org/1999/xlink" xmlns:svgjs="http://svgjs.dev/svgjs" width="1000" height="146" viewBox="0 0 1000 146"><g transform="matrix(1,0,0,1,-0.6060460150657718,-0.3328215385027278)"><svg viewBox="0 0 396 58" data-background-color="#ffffff" preserveAspectRatio="xMidYMid meet" height="146" width="1000" xmlns="http://www.w3.org/2000/svg" xmlns:xlink="http://www.w3.org/1999/xlink"><g id="tight-bounds" transform="matrix(1,0,0,1,0.23999422314159347,0.13221797254624335)"><svg viewBox="0 0 395.52 57.735565251884175" height="57.735565251884175" width="395.52"><g><svg viewBox="0 0 395.52 57.735565251884175" height="57.735565251884175" width="395.52"><g><svg viewBox="0 0 395.52 57.735565251884175" height="57.735565251884175" width="395.52"><g id="textblocktransform"><svg viewBox="0 0 395.52 57.735565251884175" height="57.735565251884175" width="395.52" id="textblock"><g><svg viewBox="0 0 395.52 57.735565251884175" height="57.735565251884175" width="395.52"><g transform="matrix(1,0,0,1,0,0)"><svg width="395.52" viewBox="0.05000000074505806 -35.79999923706055 250.67999267578125 36.79999923706055" height="57.735565251884175" data-palette-color="#77d4fc"><g class="undefined-text-0" data-fill-palette-color="primary" id="text-0"><path d="M0.05-34.8L23.55-34.8 22.55-27.45 16.5-27.45 16.5 0 6.6 0 6.6-27.45 0.05-27.45 0.05-34.8ZM40.35 0L35.35-12.55 34.45-12.55 34.45 0 24.55 0 24.55-34.8 35.2-34.8Q48.7-34.8 48.7-23.8L48.7-23.8Q48.7-20.85 47.6-18.4 46.5-15.95 43.95-14.45L43.95-14.45 50.75 0 40.35 0ZM34.45-28.05L34.45-19.2 35.35-19.2Q37.2-19.2 37.95-20.28 38.7-21.35 38.7-23.8L38.7-23.8Q38.7-26 37.85-27.03 37-28.05 35.2-28.05L35.2-28.05 34.45-28.05ZM76.34 0L66.4 0 65.4-6.9 59.35-6.9 58.35 0 48.5 0 56.6-34.8 68.3-34.8 76.34 0ZM62.35-27.85L60.35-13.8 64.4-13.8 62.35-27.85ZM87.89-35.8Q91.44-35.8 94.14-34.63 96.84-33.45 98.99-31.1L98.99-31.1 94.89-26.1Q91.94-28.75 89.19-28.75L89.19-28.75Q87.74-28.75 87.04-28 86.34-27.25 86.34-26L86.34-26Q86.34-24.75 87.29-23.95 88.24-23.15 91.19-21.8L91.19-21.8Q94.29-20.35 96.07-18.93 97.84-17.5 98.74-15.48 99.64-13.45 99.64-10.4L99.64-10.4Q99.64-7.05 98.12-4.45 96.59-1.85 93.74-0.43 90.89 1 87.04 1L87.04 1Q82.94 1 80.07-0.4 77.19-1.8 74.94-4.15L74.94-4.15 79.54-9.3Q81.34-7.7 82.92-6.9 84.49-6.1 86.19-6.1L86.19-6.1Q89.39-6.1 89.39-9.5L89.39-9.5Q89.39-11.05 88.44-12.1 87.49-13.15 85.19-14.2L85.19-14.2Q80.14-16.45 78.14-18.9 76.14-21.35 76.14-25.1L76.14-25.1Q76.14-28.35 77.67-30.78 79.19-33.2 81.87-34.5 84.54-35.8 87.89-35.8L87.89-35.8ZM126.04 0L116.14 0 116.14-14.2 111.34-14.2 111.34 0 101.44 0 101.44-34.8 111.34-34.8 111.34-21.8 116.14-21.8 116.14-34.8 126.04-34.8 126.04 0Z" fill="#77d4fc" data-fill-palette-color="primary"></path><path d="M138.59-35.8Q142.14-35.8 144.84-34.63 147.54-33.45 149.69-31.1L149.69-31.1 145.59-26.1Q142.64-28.75 139.89-28.75L139.89-28.75Q138.44-28.75 137.74-28 137.04-27.25 137.04-26L137.04-26Q137.04-24.75 137.99-23.95 138.94-23.15 141.89-21.8L141.89-21.8Q144.99-20.35 146.77-18.93 148.54-17.5 149.44-15.48 150.34-13.45 150.34-10.4L150.34-10.4Q150.34-7.05 148.82-4.45 147.29-1.85 144.44-0.43 141.59 1 137.74 1L137.74 1Q133.64 1 130.77-0.4 127.89-1.8 125.64-4.15L125.64-4.15 130.24-9.3Q132.04-7.7 133.62-6.9 135.19-6.1 136.89-6.1L136.89-6.1Q140.09-6.1 140.09-9.5L140.09-9.5Q140.09-11.05 139.14-12.1 138.19-13.15 135.89-14.2L135.89-14.2Q130.84-16.45 128.84-18.9 126.84-21.35 126.84-25.1L126.84-25.1Q126.84-28.35 128.37-30.78 129.89-33.2 132.57-34.5 135.24-35.8 138.59-35.8L138.59-35.8ZM150.79-34.8L174.29-34.8 173.29-27.45 167.24-27.45 167.24 0 157.34 0 157.34-27.45 150.79-27.45 150.79-34.8ZM188.49-35.8Q202.29-35.8 202.29-17.45L202.29-17.45Q202.29-8.35 198.79-3.68 195.29 1 188.49 1L188.49 1Q181.69 1 178.21-3.63 174.74-8.25 174.74-17.45L174.74-17.45Q174.74-26.5 178.21-31.15 181.69-35.8 188.49-35.8L188.49-35.8ZM188.49-28.75Q187.14-28.75 186.39-27.68 185.64-26.6 185.31-24.2 184.99-21.8 184.99-17.45L184.99-17.45Q184.99-12.95 185.29-10.53 185.59-8.1 186.34-7.05 187.09-6 188.49-6L188.49-6Q189.94-6 190.69-7.05 191.44-8.1 191.74-10.5 192.04-12.9 192.04-17.45L192.04-17.45Q192.04-21.75 191.71-24.18 191.38-26.6 190.61-27.68 189.84-28.75 188.49-28.75L188.49-28.75ZM220.33 0L215.33-12.55 214.43-12.55 214.43 0 204.53 0 204.53-34.8 215.18-34.8Q228.68-34.8 228.68-23.8L228.68-23.8Q228.68-20.85 227.58-18.4 226.48-15.95 223.93-14.45L223.93-14.45 230.73 0 220.33 0ZM214.43-28.05L214.43-19.2 215.33-19.2Q217.18-19.2 217.93-20.28 218.68-21.35 218.68-23.8L218.68-23.8Q218.68-26 217.83-27.03 216.98-28.05 215.18-28.05L215.18-28.05 214.43-28.05ZM230.88-34.8L250.73-34.8 249.73-27.95 240.78-27.95 240.78-21 248.68-21 248.68-14.3 240.78-14.3 240.78-6.95 250.33-6.95 250.33 0 230.88 0 230.88-34.8Z" fill="#0718c4" data-fill-palette-color="secondary"></path></g></svg></g></svg></g></svg></g></svg></g></svg></g><defs></defs></svg><rect width="395.52" height="57.735565251884175" fill="none" stroke="none" visibility="hidden"></rect></g></svg></g></svg>